<svg xmlns="http://www.w3.org/2000/svg" viewBox="0 0 363.53 364.61"><defs><style>.cls-1{fill:#d0d3ff;}.cls-2,.cls-6{fill:none;stroke-linecap:round;stroke-linejoin:round;}.cls-2{stroke:#bee2e8;}.cls-3{fill:#ddf1ff;}.cls-4{fill:#dac1dd;}.cls-5{fill:#90d1db;}.cls-6{stroke:#84b8e3;stroke-width:2px;}</style></defs><g id="Layer_2" data-name="Layer 2"><g id="main-blob"><path class="cls-1" d="M359.81,211.44c-.9-23.06-19.19-27.5-43.14-66.21-28.29-45.74-16.58-61.91-36.13-81.91-44.75-45.8-147-3-152.27-.77C113.8,68.79,23.17,107.86,19.5,178.14c-1.49,28.57,13.26,50.18,42.77,93.4,28,41,65,95.23,112.08,93,9.57-.45,22.48-7.32,48.3-21.05,30.83-16.4,61.16-32.82,92.18-63.54C343.27,251.79,360.71,234.51,359.81,211.44Z"/></g><g id="lines"><line class="cls-2" x1="244.76" y1="15.95" x2="230.23" y2="30.47"/><line class="cls-2" x1="237.85" y1="31.39" x2="261.11" y2="8.13"/><line class="cls-2" x1="245.66" y1="31.39" x2="276.55" y2="0.5"/><line class="cls-2" x1="255.36" y1="31.39" x2="276.55" y2="10.2"/><line class="cls-2" x1="264.77" y1="31.39" x2="276.55" y2="19.61"/><line class="cls-2" x1="273.63" y1="31.39" x2="279.48" y2="25.54"/></g><g id="left-blob"><path class="cls-3" d="M3.28,269.62c-7.19,8.12-2.81,34.54,15.63,39.6,17.31,4.76,34.46-12.77,33.35-23.45C50.73,270.91,12.79,258.87,3.28,269.62Z"/></g><g id="right-blob"><path class="cls-4" d="M315.09,71.61c-8.89,9.13-2.39,40.77,16.38,44.65,15.53,3.21,33.28-13.9,32-26.42C361.73,73,325.18,61.25,315.09,71.61Z"/></g><g id="top-blob"><path class="cls-5" d="M70.43,33.33c-10.23,2.06-15,17.4-10.05,24.28,2.83,3.89,8.12,4.16,9.21,4.18,9.23.22,19.8-9.44,17.58-18.42C85.54,36.75,77.3,31.94,70.43,33.33Z"/></g><g id="line"><path class="cls-6" d="M129.16,328.86a219.15,219.15,0,0,1-72.07-19.25"/><path class="cls-6" d="M260.71,305.93a272,272,0,0,1-88.65,23,252.79,252.79,0,0,1-26.82.87"/><path class="cls-6" d="M349.2,227.36c-15.07,31.89-44.07,54.89-74.37,71.65"/><path class="cls-6" d="M355.57,210c-.34,1.21-.7,2.42-1.08,3.62"/><path class="cls-6" d="M353.55,143.86a104.74,104.74,0,0,1,5.16,51.4"/></g></g></svg>