<svg xmlns="http://www.w3.org/2000/svg" viewBox="0 0 373.2 373.8"><defs><style>.cls-5,.cls-6{fill:none;stroke-linecap:round;stroke-linejoin:round}.cls-5{stroke:#84b8e3;stroke-width:3px}.cls-6{stroke:#bee2e8}</style></defs><g id="Layer_2" data-name="Layer 2"><path d="M619 355c-1-25-20-29-46-70-30-49-17-66-38-87-47-48-156-3-161-1-16 7-112 48-116 123-1 30 14 53 46 98 29 44 69 101 119 99 10-1 23-8 51-23 32-17 65-34 98-67 30-30 48-48 47-72z" transform="translate(-258 -143)" fill="#d0d3ff"/><path d="M573 215c-9 9-2 40 17 44 15 3 33-14 32-26-2-17-39-29-49-18z" transform="translate(-258 -143)" fill="#dac1dd"/><path d="M276 424c-6 6-2 25 11 28 12 4 24-9 23-16-1-11-28-20-34-12z" transform="translate(-258 -143)" fill="#ddf1ff"/><path d="M329 176c-11 2-15 18-10 25 2 3 8 4 9 4 9 0 20-10 17-19-1-6-9-11-16-10z" transform="translate(-258 -143)" fill="#90d1db"/><path class="cls-5" d="M399 472a219 219 0 01-72-19M531 449a272 272 0 01-89 23 253 253 0 01-27 1M619 371c-15 32-44 55-74 71M626 353l-1 4M624 287a105 105 0 015 52" transform="translate(-258 -143)"/><path class="cls-6" d="M245 16l-15 15M238 31l23-23M246 31l31-30M255 31l22-21M265 31l12-11M274 31l6-5"/></g></svg>