<svg xmlns="http://www.w3.org/2000/svg" xmlns:xlink="http://www.w3.org/1999/xlink" viewBox="0 0 220.32 196.83"><defs><style>.cls-1,.cls-10,.cls-2{fill:none;}.cls-1{clip-rule:evenodd;}.cls-3{clip-path:url(#clip-path);}.cls-4{clip-path:url(#clip-path-2);}.cls-5{fill:#7dc0ff;}.cls-6{clip-path:url(#clip-path-3);}.cls-7{isolation:isolate;}.cls-8{clip-path:url(#clip-path-5);}.cls-9{clip-path:url(#clip-path-6);}.cls-10{stroke:#5784ac;stroke-miterlimit:10;stroke-width:2px;}.cls-11{font-size:48px;fill:#fff;font-family:Montserrat-Bold, Montserrat;font-weight:700;}.cls-12{letter-spacing:-0.03em;}.cls-13{letter-spacing:-0.04em;}.cls-14{font-size:36px;font-family:Montserrat-Medium, Montserrat;font-weight:500;}.cls-15{letter-spacing:-0.01em;}</style><clipPath id="clip-path" transform="translate(5 3.17)"><path class="cls-1" d="M105.77,187.68c46.13-9.74,84-33.4,101.49-89.18s-43.7-51.85-89.44-84.85S15.32,21.53,1.7,77.31,59.64,197.42,105.77,187.68Z"/></clipPath><clipPath id="clip-path-2" transform="translate(5 3.17)"><rect class="cls-2" x="-34.84" y="-70.32" width="1440" height="1024"/></clipPath><clipPath id="clip-path-3" transform="translate(5 3.17)"><path class="cls-1" d="M90.1,188.66c37.56-17.64,134.58-9.31,118.38-83.59S152-16.12,113.89,5.14-4.23,28.53,5.16,89.72,52.55,206.31,90.1,188.66Z"/></clipPath><clipPath id="clip-path-5" transform="translate(5 3.17)"><rect class="cls-2" x="-24.84" y="-36.32" width="270" height="263"/></clipPath><clipPath id="clip-path-6" transform="translate(5 3.17)"><rect class="cls-2" x="4.16" y="-0.32" width="207" height="193"/></clipPath></defs><g id="Layer_2" data-name="Layer 2"><g id="Layer_1-2" data-name="Layer 1"><g class="cls-3"><g class="cls-4"><rect class="cls-5" width="220.32" height="196.83"/></g></g><g class="cls-6"><g class="cls-4"><g class="cls-7"><g class="cls-8"><g class="cls-9"><path class="cls-10" d="M90.1,188.66c37.56-17.64,134.58-9.31,118.38-83.59S152-16.12,113.89,5.14-4.23,28.53,5.16,89.72,52.55,206.31,90.1,188.66Z" transform="translate(5 3.17)"/></g></g></g></g></g><text class="cls-11" transform="translate(34.13 94.82)">M<tspan class="cls-12" x="45.84" y="0">O</tspan><tspan class="cls-13" x="84.91" y="0">Y</tspan><tspan x="115.29" y="0">A</tspan><tspan class="cls-14"><tspan x="21.31" y="43.2">KNI</tspan><tspan class="cls-15" x="87.59" y="43.2">T</tspan><tspan x="108.4" y="43.2">S</tspan></tspan></text></g></g></svg>

