<svg xmlns="http://www.w3.org/2000/svg" viewBox="0 0 668.68 505.53">
  <title>Moya logo</title>
  <g id="Layer_2" data-name="Layer 2">
    <circle cx="431.12" cy="153.25" r="153.25" fill="#def1fc"/>
  </g>
  <g id="Layer_3" data-name="Layer 3">
    <path d="M413.82,336.32c-3.1,11.22-9.38,33.16-25.88,57.13-7.61,11.05-18.68,27.12-38.49,40-22.37,14.56-43.37,17-66.29,19.55-18.2,2-53.34,5.46-94.67-9.26-16.63-5.93-35.61-12.53-54.31-30.07C104,385.34,97.23,350,95.28,338.89c-2.44-13.92-7.57-45.72,9.15-78.25C108.85,252,120.69,229,145,218.51c12.08-5.2,14.58-1.86,40.24-6.92,23.69-4.67,23.72-7.94,52.89-15.41,24-6.16,42.76-8.74,60-11.11,19.52-2.69,29.55-4,42.22-3.68,18.8.51,34.7,1.24,49.64,11.94,14,10,19.86,23.7,23.74,32.75,7.4,17.28,7.38,31.76,7.45,51.34A208.7,208.7,0,0,1,413.82,336.32Z" transform="translate(167.55 -163.79)" fill="none" stroke="#231f20" stroke-miterlimit="10" stroke-width="2" opacity="0.32"/>
    <path d="M495.77,312.38" transform="translate(167.55 -163.79)" fill="none" stroke="#231f20" stroke-miterlimit="10" stroke-width="2"/>
    <path d="M475.85,359.11" transform="translate(167.55 -163.79)" fill="none" stroke="#231f20" stroke-miterlimit="10" stroke-width="2"/>
    <path d="M465.89,333.06" transform="translate(167.55 -163.79)" fill="none" stroke="#231f20" stroke-miterlimit="10" stroke-width="2"/>
    <path d="M494.23,323.11" transform="translate(167.55 -163.79)" fill="none" stroke="#231f20" stroke-miterlimit="10" stroke-width="2"/>
    <path d="M433,463.28" transform="translate(167.55 -163.79)" fill="none" stroke="#231f20" stroke-miterlimit="10" stroke-width="2"/>
    <path d="M469.72,372.13" transform="translate(167.55 -163.79)" fill="none" stroke="#231f20" stroke-miterlimit="10" stroke-width="2"/>
    <path d="M486.57,421.15" transform="translate(167.55 -163.79)" fill="none" stroke="#231f20" stroke-miterlimit="10" stroke-width="2"/>
  </g>
  <g id="Layer_1" data-name="Layer 1">
    <text x="167.55" y="-163.79"/>    <text x="167.55" y="-163.79"/>    <g>
      <path d="M213.74,268.64v56h-4.42V276.32l-11.09,17.6-11-17.52v48.24h-4.42v-56h4.78l10.81,17,10.8-17Z" transform="translate(167.55 -163.79)" fill="#231f20"/>
      <path d="M234.55,296.48c0-20,4.49-29,13.34-29s13.34,9,13.34,29-4.42,29-13.34,29S234.55,316.48,234.55,296.48Zm22.18,0c0-9.92-1.16-24.32-8.84-24.32S239,286.56,239,296.48s1.16,24.32,8.85,24.32S256.73,306.4,256.73,296.48Z" transform="translate(167.55 -163.79)" fill="#231f20"/>
      <path d="M302.12,268.64l-10.66,23v33H287v-33l-10.66-23H281l8.26,18.16,8.27-18.16Z" transform="translate(167.55 -163.79)" fill="#231f20"/>
      <path d="M335.54,315.92l-12-14.48-4.06,23.2h-4.27l10.22-56h5.36l10.8,56h-4.42Zm-1.53-8.4-5.94-31.76-3.55,20.32Z" transform="translate(167.55 -163.79)" fill="#231f20"/>
      <path d="M209.25,367.84V342.28h2.29v14.85l12.75-14.89h2.52l-9.47,11.25,9.95,14.35h-2.57L215.88,355l-4.34,5v7.86Z" transform="translate(167.55 -163.79)" fill="#545554"/>
      <path d="M235.78,346.92v20.92h-2.29V342.28h1.89l15.21,21.31V342.31h2.28v25.53h-2.12Z" transform="translate(167.55 -163.79)" fill="#545554"/>
      <path d="M261.94,367.84V342.28h2.28v25.56Z" transform="translate(167.55 -163.79)" fill="#545554"/>
      <path d="M289.73,344.51h-8.25v23.33H279.2V344.51h-8.26v-2.23h18.79Z" transform="translate(167.55 -163.79)" fill="#545554"/>
      <path d="M310,347.07a5.68,5.68,0,0,0-1.14-1.1,7,7,0,0,0-1.47-.85,9.34,9.34,0,0,0-1.74-.57,8.4,8.4,0,0,0-2-.22,6.53,6.53,0,0,0-4.45,1.28,4.41,4.41,0,0,0-1.42,3.47,3.77,3.77,0,0,0,.67,2.37,4.75,4.75,0,0,0,2.1,1.4,36.67,36.67,0,0,0,3.66,1.11,24.7,24.7,0,0,1,4.27,1.37,6.6,6.6,0,0,1,2.77,2.14,6,6,0,0,1,1,3.65,6.89,6.89,0,0,1-.62,3.05,5.9,5.9,0,0,1-1.73,2.16,7.37,7.37,0,0,1-2.64,1.27,12.67,12.67,0,0,1-3.36.42,13.91,13.91,0,0,1-3.44-.42,12.41,12.41,0,0,1-5.86-3.29l1.15-2.05a8.44,8.44,0,0,0,1.48,1.35,12,12,0,0,0,1.92,1.13,10.47,10.47,0,0,0,2.29.78,11.68,11.68,0,0,0,2.53.27,7.25,7.25,0,0,0,4.32-1.12,3.8,3.8,0,0,0,1.55-3.3,3.89,3.89,0,0,0-.78-2.54,5.75,5.75,0,0,0-2.35-1.56,34.08,34.08,0,0,0-3.85-1.19,24.27,24.27,0,0,1-4.08-1.36,5.17,5.17,0,0,1-3.33-5.29,7.28,7.28,0,0,1,1.06-4,6.75,6.75,0,0,1,2.92-2.48,10.31,10.31,0,0,1,4.28-.84,11.25,11.25,0,0,1,2.85.34,9.73,9.73,0,0,1,4.55,2.61Z" transform="translate(167.55 -163.79)" fill="#545554"/>
    </g>
  </g>
</svg>
